<?xml version="1.0" standalone="no"?>
<!DOCTYPE svg PUBLIC "-//W3C//DTD SVG 20010904//EN"
 "http://www.w3.org/TR/2001/REC-SVG-20010904/DTD/svg10.dtd">
<svg version="1.0" xmlns="http://www.w3.org/2000/svg"
 width="440.000000pt" height="440.000000pt" viewBox="0 0 440.000000 440.000000"
 preserveAspectRatio="xMidYMid meet">
<metadata>
Created by potrace 1.14, written by Peter Selinger 2001-2017
</metadata>
<g transform="translate(0.000000,440.000000) scale(0.100000,-0.100000)"
fill="#000000" stroke="none">
<path d="M1239 4290 c-91 -17 -254 -136 -274 -200 -4 -12 -12 -19 -18 -16 -7
3 -36 12 -66 22 -159 49 -310 -50 -314 -207 -2 -46 -6 -64 -17 -67 -30 -9 -98
-72 -129 -118 -111 -169 -93 -365 41 -422 33 -14 146 -9 178 8 19 10 25 10 28
1 7 -21 46 -52 85 -68 31 -13 47 -31 92 -107 65 -111 115 -207 138 -264 10
-25 27 -47 41 -53 16 -8 31 -30 45 -68 11 -31 31 -69 45 -86 l24 -30 -67 -39
c-141 -84 -279 -195 -306 -247 -50 -94 126 -250 351 -310 55 -15 120 -23 216
-26 l136 -5 31 -50 c17 -27 31 -51 31 -54 0 -2 -20 -35 -45 -74 -57 -89 -136
-247 -164 -328 -23 -68 -26 -92 -11 -92 21 0 8 -24 -80 -146 -94 -131 -157
-233 -183 -296 -21 -49 -45 -197 -61 -373 -13 -131 -20 -172 -32 -193 -8 -12
-13 -30 -12 -39 4 -23 -86 -72 -132 -73 -54 -1 -66 -12 -51 -48 25 -59 117
-77 264 -51 53 10 70 10 76 0 7 -11 44 -15 117 -12 33 1 44 18 60 86 4 17 10
32 14 35 7 5 73 129 186 349 66 129 72 137 144 194 76 61 431 299 475 319 20
9 32 5 85 -27 66 -40 308 -219 374 -277 30 -26 39 -41 39 -68 1 -38 -12 -180
-17 -189 -2 -4 -7 -35 -10 -70 -4 -35 -14 -80 -22 -100 -8 -20 -16 -71 -18
-115 -3 -103 10 -121 86 -121 35 0 62 -6 80 -19 40 -26 83 -34 179 -29 81 3
126 20 136 49 7 20 -23 44 -59 47 -36 3 -71 26 -88 57 -6 11 5 37 36 85 67
103 179 309 220 404 29 68 36 95 36 150 0 56 -17 176 -37 263 -2 13 -7 34 -10
48 -11 61 -34 157 -43 180 -6 16 -6 31 1 41 11 17 -33 150 -102 314 -35 84
-189 385 -245 478 -25 43 -46 79 -46 82 0 2 48 28 108 58 59 30 148 78 197
107 50 29 104 60 120 70 17 9 72 43 123 74 51 31 97 56 102 56 6 0 10 3 10 8
0 4 40 29 89 56 l89 50 -14 45 c-8 25 -14 46 -14 46 0 0 33 0 73 0 53 1 82 6
112 22 44 22 232 69 242 60 9 -9 43 12 43 26 0 7 -14 24 -31 36 -27 20 -39 22
-80 17 -27 -4 -49 -5 -49 -2 0 5 134 87 185 113 27 14 47 34 63 65 26 50 22
70 -14 87 -23 10 -36 6 -107 -28 -202 -97 -487 -205 -516 -196 -11 3 -68 -10
-128 -28 -108 -34 -189 -59 -208 -63 -5 -1 -28 -7 -50 -12 -22 -6 -54 -14 -72
-17 -18 -3 -43 -9 -57 -15 -15 -5 -26 -8 -26 -5 0 2 -15 -2 -34 -10 -18 -8
-111 -37 -207 -65 -96 -28 -194 -57 -219 -65 -179 -53 -226 -69 -235 -75 -15
-11 -55 -19 -55 -11 0 4 13 17 30 29 38 28 64 112 55 174 -12 81 -76 135 -130
110 -22 -10 -25 -8 -36 26 -6 20 -25 63 -40 94 -16 32 -29 66 -29 77 0 11 -11
33 -25 49 -29 34 -75 141 -105 242 -25 84 -25 102 -1 124 48 43 68 151 41 221
-7 18 -4 35 10 67 52 115 -5 223 -133 253 -67 15 -110 10 -171 -21 -39 -19
-51 -22 -58 -12 -4 7 -8 15 -8 19 0 3 -15 21 -32 40 -56 59 -150 86 -239 69z
m346 -630 c-4 -6 -11 -8 -16 -5 -5 3 -6 -1 -2 -11 5 -14 3 -15 -16 -5 -27 15
-19 31 15 31 15 0 23 -4 19 -10z m-562 -139 c3 8 6 9 6 2 1 -6 -20 -39 -45
-73 -85 -113 -161 -139 -161 -56 0 20 4 36 8 36 11 0 113 70 121 83 5 8 8 7 8
-3 0 -10 3 -11 8 -4 10 16 36 23 43 11 4 -5 9 -3 12 4z m2361 -455 c-11 -28
49 -197 84 -239 8 -9 12 -20 8 -24 -4 -4 -71 -42 -149 -84 -105 -58 -145 -75
-154 -67 -9 7 -13 7 -13 -1 0 -7 -4 -9 -10 -6 -5 3 -10 1 -10 -5 0 -6 -4 -9
-9 -6 -5 4 -11 3 -13 -1 -2 -7 -93 -55 -108 -59 -3 0 -18 -6 -35 -13 -60 -26
-103 -39 -108 -35 -3 3 -8 0 -13 -7 -5 -8 -3 -10 6 -4 9 6 11 4 5 -4 -4 -7
-17 -10 -29 -7 -18 4 -19 4 -5 -7 15 -12 15 -15 -9 -36 -14 -13 -37 -27 -50
-32 -13 -5 -21 -13 -18 -17 7 -11 -29 -41 -71 -59 -19 -7 -33 -17 -31 -21 2
-5 53 -107 113 -227 128 -256 171 -348 180 -390 10 -41 47 -125 56 -125 11 0
50 -110 44 -120 -9 -14 -81 -31 -100 -24 -10 4 -15 14 -12 25 4 13 0 19 -11
19 -15 0 -15 2 -2 11 12 9 11 10 -7 6 -17 -4 -20 -1 -15 12 5 14 4 14 -11 2
-13 -10 -17 -10 -17 -1 0 10 -3 10 -15 0 -12 -10 -15 -10 -15 1 0 11 -2 11
-10 -1 -8 -12 -12 -13 -19 -2 -6 11 -10 10 -15 -3 -5 -15 -9 -15 -23 -4 -9 8
-14 9 -10 3 4 -7 -1 -18 -10 -25 -14 -12 -16 -12 -8 0 5 10 4 12 -3 7 -7 -4
-12 -27 -12 -52 0 -25 -4 -43 -9 -40 -5 4 -11 2 -13 -3 -1 -6 -14 -12 -28 -15
-14 -3 -51 -12 -83 -19 -31 -8 -59 -12 -61 -8 -2 3 -4 83 -4 176 0 94 -3 190
-7 215 -17 113 -37 199 -68 298 -19 59 -38 122 -42 140 -4 18 -13 36 -22 39
-8 3 -12 12 -9 19 3 8 1 14 -4 14 -6 0 -10 7 -10 16 0 9 -10 30 -22 47 -13 18
-22 34 -20 37 2 3 -5 6 -15 7 -15 2 -15 1 2 -6 17 -8 17 -10 3 -10 -19 -1 -36
24 -42 61 -2 13 -9 22 -16 20 -6 -1 -9 2 -5 8 3 5 1 10 -4 10 -6 0 -10 3 -10
8 4 24 -2 42 -13 36 -6 -4 -8 -3 -4 4 3 6 0 17 -8 25 -10 10 -11 18 -4 25 6 6
6 12 -3 17 -8 5 -10 4 -5 -3 4 -7 2 -12 -3 -12 -6 0 -11 9 -11 20 0 11 -5 20
-11 20 -8 0 -9 4 0 13 6 8 8 17 4 20 -3 4 1 7 11 7 10 0 15 -5 11 -12 -4 -7 6
1 21 17 15 17 32 31 38 31 6 1 13 3 16 4 3 1 14 3 25 5 11 1 35 5 53 9 24 5
32 3 32 -9 0 -9 6 -12 16 -8 9 3 20 0 25 -8 11 -18 11 -32 0 -25 -5 4 -6 -9
-1 -29 4 -19 5 -36 2 -39 -3 -4 1 -6 9 -6 11 0 11 -2 -1 -10 -10 -6 -11 -10
-2 -10 6 0 12 -12 12 -27 0 -22 2 -25 10 -13 5 8 7 24 4 35 -2 11 5 3 16 -18
11 -21 18 -42 15 -47 -11 -17 -23 -1 -19 23 4 20 4 20 -5 2 -12 -28 6 -50 27
-33 13 11 15 10 9 -5 -4 -10 -3 -16 2 -12 5 3 12 1 16 -5 3 -5 0 -10 -8 -10
-10 0 -13 -7 -10 -19 6 -22 29 -34 45 -24 6 3 8 1 5 -4 -6 -10 18 -18 81 -30
12 -2 22 1 22 7 0 6 -4 9 -8 6 -4 -2 -14 0 -22 6 -12 8 -12 9 2 4 10 -3 20 -1
23 4 6 9 -8 14 -27 11 -5 0 -8 4 -8 10 0 8 -6 7 -17 -2 -15 -12 -16 -12 -8 1
6 12 5 13 -5 3 -11 -10 -18 -6 -38 23 -20 30 -73 139 -71 147 0 1 -4 15 -10
30 -15 38 -14 42 4 27 12 -10 15 -10 15 3 0 16 27 43 35 35 3 -3 2 -13 -1 -22
-5 -14 -9 -15 -16 -4 -8 11 -9 10 -6 -1 2 -8 12 -15 22 -17 10 -1 15 0 12 3
-3 4 -1 12 4 18 7 8 4 18 -10 30 -11 10 -20 13 -20 8 0 -16 -28 -24 -36 -11
-4 6 -3 8 3 5 6 -4 13 -1 16 6 4 10 -2 13 -18 9 -28 -5 -33 4 -41 60 l-6 44
31 -2 c20 -1 31 3 31 11 0 8 8 12 20 10 11 -2 20 1 20 7 0 6 3 8 7 5 3 -4 11
-3 17 2 19 14 56 20 56 8 0 -6 2 -8 6 -5 3 3 21 2 40 -2 22 -5 34 -4 34 3 0 6
3 8 6 4 3 -3 20 2 37 12 18 10 49 21 70 25 21 4 81 27 133 51 52 24 127 53
167 64 68 20 158 51 202 71 54 24 87 26 79 6z m-969 -305 c0 -27 -4 -37 -12
-34 -7 3 -10 9 -7 14 5 9 -17 13 -45 10 -7 -2 -10 2 -6 8 7 12 -8 15 -19 4 -3
-4 -17 -8 -29 -10 -37 -5 3 15 65 31 29 8 53 15 53 15 0 1 0 -16 0 -38z m-223
-41 c-12 -12 -22 -28 -22 -38 -1 -15 -2 -15 -13 -1 -7 9 -18 14 -24 12 -7 -3
-13 0 -13 5 0 8 43 27 89 41 3 0 -5 -8 -17 -19z m273 -60 c3 -5 1 -10 -4 -10
-6 0 -11 5 -11 10 0 6 2 10 4 10 3 0 8 -4 11 -10z m-12 -70 c3 -11 1 -18 -4
-14 -5 3 -9 12 -9 20 0 20 7 17 13 -6z m618 -1297 c26 -107 27 -112 40 -193 5
-36 12 -78 15 -95 3 -16 6 -60 6 -97 1 -62 -4 -76 -58 -186 -33 -65 -97 -186
-144 -269 l-84 -151 -105 2 c-58 1 -111 5 -118 9 -12 7 13 109 44 177 21 46
53 171 47 182 -3 4 -1 8 5 8 5 0 8 9 6 19 -2 11 3 22 13 26 9 3 17 5 17 3 0
-5 69 45 88 63 19 20 18 49 -3 74 -17 20 -75 45 -107 45 -13 0 -22 4 -19 8 3
5 -10 8 -29 7 -19 -2 -33 2 -32 7 1 6 -6 12 -15 14 -37 8 -44 11 -92 32 -28
13 -60 25 -73 28 -13 4 -23 9 -23 13 0 4 -6 8 -12 8 -20 2 -82 27 -89 36 -3 5
-9 8 -13 8 -23 -3 -36 0 -32 8 4 5 -3 7 -13 4 -11 -3 -33 4 -48 15 -46 32
-114 64 -188 88 -46 15 -61 23 -43 24 21 0 26 4 22 18 -5 14 -4 14 4 3 12 -17
49 -19 277 -21 83 -1 162 3 175 9 14 5 20 10 15 10 -6 1 -11 10 -12 21 -2 23
6 25 117 39 41 5 86 12 100 15 124 29 232 60 274 80 61 27 58 30 87 -91z
m-1684 -7 c14 -16 20 -36 19 -65 0 -22 -3 -41 -6 -41 -3 0 -5 -37 -6 -83 0
-64 3 -84 15 -92 9 -5 18 -10 21 -10 13 -1 43 -24 32 -25 -7 0 -18 -5 -25 -10
-7 -6 -25 -22 -42 -35 -16 -14 -27 -25 -23 -25 4 0 -6 -23 -22 -50 -17 -28
-30 -53 -30 -55 0 -11 -55 -121 -63 -126 -5 -3 -8 -9 -8 -13 2 -12 -10 -61
-22 -86 -6 -14 -12 -29 -13 -35 0 -5 -6 -23 -13 -40 -7 -16 -27 -68 -43 -115
-17 -47 -35 -90 -40 -97 -12 -15 -59 0 -116 39 -43 30 -47 48 -10 48 13 0 18
5 15 14 -3 8 1 17 9 20 16 6 19 26 3 26 -5 0 -7 -5 -3 -12 4 -7 3 -8 -5 -4 -9
6 -9 11 0 22 10 12 10 15 -2 12 -15 -3 -17 24 -6 97 3 22 6 45 6 52 1 13 26
12 38 -2 4 -4 2 -5 -6 0 -10 5 -12 4 -7 -4 10 -16 29 -3 22 16 -3 8 -1 11 4 8
11 -7 14 8 3 19 -10 9 -12 56 -3 56 4 0 7 10 7 23 0 29 13 58 23 52 5 -3 5 7
2 22 -15 58 -4 109 39 173 32 48 149 280 142 280 -5 0 -2 4 5 9 7 4 14 17 15
28 0 12 6 19 13 16 7 -2 15 0 19 6 11 18 40 12 62 -13z m538 -54 c-3 -3 -11 0
-18 7 -9 10 -8 11 6 5 10 -3 15 -9 12 -12z m68 9 c9 -1 17 -5 17 -11 0 -6 -9
-6 -24 0 -17 6 -26 5 -28 -2 -3 -7 -7 -6 -10 4 -5 11 -2 15 10 13 9 -2 25 -4
35 -4z"/>
<path d="M2230 2563 c0 -7 6 -13 13 -13 8 0 8 -3 -2 -9 -12 -8 -11 -16 7 -54
12 -25 26 -48 32 -52 6 -3 8 -11 5 -16 -4 -5 2 -6 11 -2 12 4 14 8 6 11 -10 3
-10 7 0 20 11 13 11 14 -1 7 -11 -6 -13 -3 -8 14 3 12 -1 27 -9 35 -11 11 -11
16 -1 19 9 4 9 6 -1 6 -8 1 -22 11 -33 24 -10 12 -18 16 -19 10z"/>
<path d="M2296 2402 c-3 -5 1 -9 9 -9 8 0 12 4 9 9 -3 4 -7 8 -9 8 -2 0 -6 -4
-9 -8z"/>
<path d="M2636 1703 c2 -7 -1 -13 -6 -13 -6 0 -10 5 -10 10 0 6 -5 10 -11 10
-5 0 -7 -4 -4 -10 3 -5 -2 -10 -12 -11 -16 0 -16 -1 2 -9 11 -5 14 -9 8 -9 -7
-1 -13 -5 -13 -11 0 -5 3 -9 8 -9 29 5 40 -22 19 -49 -8 -10 -7 -12 4 -10 8 2
13 -3 12 -9 -2 -7 2 -13 7 -13 6 0 10 5 10 10 0 6 9 19 19 29 16 16 17 20 5
25 -8 3 -13 2 -10 -2 3 -5 -1 -9 -9 -9 -8 0 -11 5 -8 10 4 6 1 7 -8 2 -12 -7
-12 -6 -1 7 11 14 10 17 -5 21 -12 3 -13 5 -3 6 8 0 21 11 29 22 11 19 11 21
-2 16 -9 -3 -18 -3 -20 1 -2 4 -2 1 -1 -5z m18 -98 c-4 -8 -11 -12 -16 -9 -6
4 -5 10 3 15 19 12 19 11 13 -6z"/>
<path d="M2668 1688 c-12 -7 -4 -12 15 -9 5 1 6 -3 2 -8 -3 -6 -11 -8 -19 -5
-7 3 -13 -2 -13 -9 0 -17 19 -16 41 2 9 8 16 9 16 3 0 -6 -6 -13 -12 -16 -10
-5 -10 -7 0 -12 13 -6 17 -25 5 -23 -18 3 -33 -2 -33 -10 0 -4 10 -7 23 -7 12
1 28 -3 36 -8 12 -9 12 -8 4 9 -10 19 -8 20 32 21 24 0 42 -3 39 -7 -2 -4 4
-6 13 -4 10 2 23 4 28 4 6 1 3 6 -5 11 -9 6 -10 10 -3 10 7 0 2 10 -10 23 -12
13 -28 21 -36 18 -10 -3 -12 0 -6 10 7 11 5 11 -10 -1 -11 -9 -16 -10 -11 -2
4 7 2 12 -6 13 -7 0 -28 2 -45 3 -18 1 -38 -1 -45 -6z m157 -48 c3 -5 1 -10
-4 -10 -6 0 -11 5 -11 10 0 6 2 10 4 10 3 0 8 -4 11 -10z"/>
<path d="M2750 1600 c0 -5 5 -10 10 -10 6 0 10 5 10 10 0 6 -4 10 -10 10 -5 0
-10 -4 -10 -10z"/>
<path d="M2686 1085 c-8 -9 -12 -24 -9 -37 7 -28 42 -63 51 -53 4 4 1 10 -6
12 -6 3 -9 9 -6 14 3 6 12 5 22 -3 11 -10 11 -5 -4 17 -14 22 -15 27 -3 18 9
-7 19 -9 23 -5 4 4 13 7 19 7 25 0 11 29 -14 30 -14 1 -33 5 -42 8 -9 3 -23 0
-31 -8z m74 -19 c0 -3 -4 -8 -10 -11 -5 -3 -10 -1 -10 4 0 6 5 11 10 11 6 0
10 -2 10 -4z m-45 -36 c-3 -5 -12 -10 -18 -10 -7 0 -6 4 3 10 19 12 23 12 15
0z"/>
<path d="M1327 923 c-8 -10 -17 -27 -19 -38 -1 -11 -16 -30 -32 -42 -17 -13
-26 -23 -22 -23 5 0 3 -6 -3 -14 -7 -9 -8 -17 -2 -20 10 -7 9 -31 -2 -42 -3
-4 -4 4 -2 16 2 12 1 20 -2 16 -4 -4 -8 -14 -9 -22 -1 -9 -6 -23 -9 -32 -6
-15 -8 -15 -16 3 l-9 20 3 -20 c2 -19 37 -30 37 -12 -1 4 6 15 15 23 8 9 15
25 15 36 0 12 5 18 13 15 9 -3 12 4 9 27 -3 26 1 34 20 43 12 7 18 12 11 12
-7 1 -10 8 -7 16 4 8 10 13 14 10 4 -3 13 2 20 10 11 13 10 14 -4 9 -9 -3 -16
-3 -16 0 0 4 10 11 23 16 14 6 16 9 6 9 -9 1 -23 -7 -32 -16z"/>
<path d="M1075 704 c2 -4 0 -14 -5 -24 -6 -12 -5 -17 4 -17 13 0 15 32 3 42
-4 3 -5 2 -2 -1z"/>
<path d="M1215 680 c3 -5 8 -10 11 -10 2 0 4 5 4 10 0 6 -5 10 -11 10 -5 0 -7
-4 -4 -10z"/>
<path d="M1056 482 c-3 -5 1 -9 9 -9 8 0 12 4 9 9 -3 4 -7 8 -9 8 -2 0 -6 -4
-9 -8z"/>
</g>
</svg>
